<svg xmlns="http://www.w3.org/2000/svg" viewBox="0 0 256 256" role="img" aria-labelledby="title desc">
  <title id="title">むかいせな 歌唱データベース Icon</title>
  <desc id="desc">A sheep and melon bread themed icon in soft pink, cream, and gold.</desc>
  <defs>
    <linearGradient id="bg" x1="24" y1="20" x2="230" y2="236" gradientUnits="userSpaceOnUse">
      <stop offset="0" stop-color="#fff9ef"/>
      <stop offset=".58" stop-color="#ffddea"/>
      <stop offset="1" stop-color="#ffb7d1"/>
    </linearGradient>
    <radialGradient id="wool" cx="40%" cy="32%" r="74%">
      <stop offset="0" stop-color="#ffffff"/>
      <stop offset=".72" stop-color="#fff6ee"/>
      <stop offset="1" stop-color="#f7d8c6"/>
    </radialGradient>
    <linearGradient id="bread" x1="85" y1="151" x2="199" y2="235" gradientUnits="userSpaceOnUse">
      <stop offset="0" stop-color="#ffeaa8"/>
      <stop offset=".56" stop-color="#f4be63"/>
      <stop offset="1" stop-color="#d58a42"/>
    </linearGradient>
    <filter id="shadow" x="-20%" y="-20%" width="140%" height="140%" color-interpolation-filters="sRGB">
      <feDropShadow dx="0" dy="10" stdDeviation="10" flood-color="#9a4a70" flood-opacity=".22"/>
    </filter>
  </defs>

  <rect width="256" height="256" rx="58" fill="url(#bg)"/>
  <path d="M40 199c26 24 136 30 174-4" fill="none" stroke="#fff4f9" stroke-width="18" stroke-linecap="round" opacity=".72"/>

  <g filter="url(#shadow)">
    <circle cx="75" cy="95" r="31" fill="#fffaf4"/>
    <circle cx="103" cy="66" r="33" fill="#fffaf4"/>
    <circle cx="146" cy="66" r="34" fill="#fffaf4"/>
    <circle cx="181" cy="96" r="31" fill="#fffaf4"/>
    <circle cx="92" cy="135" r="34" fill="#fffaf4"/>
    <circle cx="130" cy="130" r="46" fill="url(#wool)"/>
    <circle cx="166" cy="135" r="34" fill="#fffaf4"/>
  </g>

  <g fill="none" stroke="#b98b6b" stroke-width="9" stroke-linecap="round">
    <path d="M71 108c-13-15-10-31 6-39 14-7 30 2 31 18"/>
    <path d="M185 108c13-15 10-31-6-39-14-7-30 2-31 18"/>
  </g>
  <g fill="none" stroke="#e0b088" stroke-width="5" stroke-linecap="round">
    <path d="M77 104c-7-9-5-19 4-24"/>
    <path d="M179 104c7-9 5-19-4-24"/>
  </g>

  <ellipse cx="128" cy="129" rx="44" ry="38" fill="#ffe9dc"/>
  <circle cx="112" cy="124" r="5" fill="#6a3d4f"/>
  <circle cx="144" cy="124" r="5" fill="#6a3d4f"/>
  <path d="M123 139c3 3 7 3 10 0" fill="none" stroke="#9b6375" stroke-width="4" stroke-linecap="round"/>
  <path d="M116 151c7 8 18 8 25 0" fill="none" stroke="#d27b9f" stroke-width="4" stroke-linecap="round"/>
  <circle cx="94" cy="138" r="7" fill="#ff9abe" opacity=".48"/>
  <circle cx="162" cy="138" r="7" fill="#ff9abe" opacity=".48"/>

  <g filter="url(#shadow)">
    <circle cx="166" cy="179" r="48" fill="url(#bread)" stroke="#fff6d9" stroke-width="8"/>
    <path d="M133 154c23 23 44 45 67 68" fill="none" stroke="#a96d34" stroke-opacity=".34" stroke-width="7" stroke-linecap="round"/>
    <path d="M197 151c-23 24-44 47-66 71" fill="none" stroke="#a96d34" stroke-opacity=".30" stroke-width="7" stroke-linecap="round"/>
    <path d="M121 181h90" fill="none" stroke="#fff0b8" stroke-opacity=".54" stroke-width="7" stroke-linecap="round"/>
    <path d="M166 135v90" fill="none" stroke="#fff0b8" stroke-opacity=".50" stroke-width="7" stroke-linecap="round"/>
    <circle cx="147" cy="162" r="5" fill="#fff5c8" opacity=".76"/>
    <circle cx="184" cy="196" r="5" fill="#fff5c8" opacity=".62"/>
  </g>

  <g fill="#e85e9e">
    <path d="M42 50h10v10H42zM52 60h10v10H52zM32 60h10v10H32z"/>
    <path d="M205 41h9v9h-9zM214 50h9v9h-9zM196 50h9v9h-9z"/>
  </g>
</svg>
